<svg width="63" height="62" viewBox="0 0 63 62" fill="none" xmlns="http://www.w3.org/2000/svg">
<g filter="url(#filter0_d)">
<path d="M47.2083 4.48611C50.9697 4.48611 54.0307 7.50526 54.0307 11.2153V42.6181C54.0307 46.3281 50.9697 49.3472 47.2083 49.3472H15.3706C11.6092 49.3472 8.54825 46.3281 8.54825 42.6181V11.2153C8.54825 7.50526 11.6092 4.48611 15.3706 4.48611H47.2083ZM47.2083 0H15.3706C9.09176 0 4 5.0222 4 11.2153V42.6181C4 48.8111 9.09176 53.8333 15.3706 53.8333H47.2083C53.4895 53.8333 58.5789 48.8111 58.5789 42.6181V11.2153C58.5789 5.0222 53.4895 0 47.2083 0ZM29.0154 17.9444H26.7412V13.4583H29.0154V15.7014H33.5636V17.9444H31.2895V20.1875H29.0154V17.9444ZM33.5636 44.8611V42.6181H31.2895V44.8611H33.5636ZM31.2895 11.2153V8.97222H26.7412V11.2153H29.0154V13.4583H31.2895V11.2153ZM49.4825 8.97222V22.4306H47.2083V20.1875H38.1118V8.97222H49.4825ZM47.2083 17.9444V11.2153H40.386V17.9444H47.2083ZM15.3706 22.4306H13.0965V24.6736H17.6447V22.4306H15.3706ZM15.3706 29.1597H17.6447V31.4028H19.9189V24.6736H17.6447V26.9167H13.0965V31.4028H15.3706V29.1597ZM26.7412 31.4028V35.8889H29.0154V31.4028H26.7412ZM35.8377 8.97222H33.5636V15.7014H35.8377V8.97222ZM35.8377 20.1875V17.9444H33.5636V20.1875H35.8377ZM42.6601 15.7014H44.9342V13.4583H42.6601V15.7014ZM19.9189 13.4583H17.6447V15.7014H19.9189V13.4583ZM24.4671 8.97222V20.1875H13.0965V8.97222H24.4671ZM22.193 11.2153H15.3706V17.9444H22.193V11.2153ZM42.6601 22.4306V24.6736H40.386V22.4306H35.8377V24.6736H33.5636V22.4306H26.7412V20.1875H24.4671V22.4306H22.193V24.6736H24.4671V29.1597H26.7412V26.9167H29.0154V31.4028H31.2895V26.9167H38.1118V29.1597H33.5636V31.4028H38.1118V33.6458H40.386V26.9167H42.6601V29.1597H44.9342V33.6458H47.2083V31.4028H49.4825V29.1597H47.2083V26.9167H44.9342V24.6736H47.2083V22.4306H42.6601ZM17.6447 40.375H19.9189V38.1319H17.6447V40.375ZM13.0965 33.6458H24.4671V44.8611H13.0965V33.6458ZM15.3706 42.6181H22.193V35.8889H15.3706V42.6181ZM42.6601 35.8889V33.6458H40.386V35.8889H42.6601ZM42.6601 38.1319H40.386V40.375H38.1118V38.1319H35.8377V35.8889H38.1118V33.6458H33.5636V31.4028H31.2895V35.8889H29.0154V38.1319H26.7412V44.8611H29.0154V42.6181H31.2895V40.375H35.8377V44.8611H38.1118V42.6181H40.386V44.8611H44.9342V42.6181H47.2083V40.375H42.6601V38.1319ZM22.193 31.4028H24.4671V29.1597H22.193V31.4028ZM44.9342 35.8889V38.1319H47.2083V40.375H49.4825V33.6458H47.2083V35.8889H44.9342ZM49.4825 44.8611V42.6181H47.2083V44.8611H49.4825ZM49.4825 26.9167V24.6736H47.2083V26.9167H49.4825Z" fill="white"/>
</g>
<defs>
<filter id="filter0_d" x="0" y="0" width="62.5789" height="61.8333" filterUnits="userSpaceOnUse" color-interpolation-filters="sRGB">
<feFlood flood-opacity="0" result="BackgroundImageFix"/>
<feColorMatrix in="SourceAlpha" type="matrix" values="0 0 0 0 0 0 0 0 0 0 0 0 0 0 0 0 0 0 127 0"/>
<feOffset dy="4"/>
<feGaussianBlur stdDeviation="2"/>
<feColorMatrix type="matrix" values="0 0 0 0 0 0 0 0 0 0 0 0 0 0 0 0 0 0 0.25 0"/>
<feBlend mode="normal" in2="BackgroundImageFix" result="effect1_dropShadow"/>
<feBlend mode="normal" in="SourceGraphic" in2="effect1_dropShadow" result="shape"/>
</filter>
</defs>
</svg>
